# xmcd
#
# Track frame offsets:
#	150
#	17567
#	42679
#	65227
#	86266
#	107721
#	134252
#	155115
#	171591
#	193912
#	207687
#	221183
#	240688
#	258038
#
# Disc length: 3731 seconds
#
# Revision: 1
# Processed by: cddbd v1.4PL0 Copyright (c) Steve Scherf et al.
# Submitted via: audiograbber 1.80
#
DISCID=dc0e910e
DTITLE=U2 - The best of 1980-1990
DYEAR=1900
DGENRE=
TTITLE0=Pride
TTITLE1=New year's day
TTITLE2=With or without you
TTITLE3=I still haven't found what I'm looking for
TTITLE4=Sunday bloody sunday
TTITLE5=Bad
TTITLE6=Where the streets have no name
TTITLE7=I will follow
TTITLE8=The unforgettable fire
TTITLE9=Sweetest thing
TTITLE10=Desire
TTITLE11=When love somes to town
TTITLE12=Angel of Harlem
TTITLE13=All I want is you
EXTD=
EXTT0=
EXTT1=
EXTT2=
EXTT3=
EXTT4=
EXTT5=
EXTT6=
EXTT7=
EXTT8=
EXTT9=
EXTT10=
EXTT11=
EXTT12=
EXTT13=
PLAYORDER=
